# xmcd CD database file generated by OrangeCD 5.2
#
# Track frame offsets:
#	150
#	20304
#	36428
#	54360
#	73989
#	88777
#	102462
#	118635
#	135096
#	146476
#	157795
#	170164
#	182351
#	195848
#	210171
#	225426
#	240363
#	253422
#	268028
#	279828
#	296545
#
# Disc length: 4183 seconds
#
# Revision: 0
# Processed by: cddbd v1.5.1PL0 Copyright (c) Steve Scherf et al.
# Submitted via: OrangeCD 5.2
#
DISCID=1b105515
DTITLE=John Williamson - True Blue 2 CD 2
DYEAR=1900
DGENRE=Country
TTITLE0=Raining on the Rock (with Warren H Williams)
TTITLE1=Forty Years Ago
TTITLE2=Dusty Road We Know
TTITLE3=Truckie's Wife
TTITLE4=Purple Roses
TTITLE5=Woman on the Land
TTITLE6=Salisbury Street
TTITLE7=It's a Way of Life
TTITLE8=My Dad Snores
TTITLE9=Kitchy Kitchy Koo
TTITLE10=Big Brother, Little Brother
TTITLE11=Big Bad Bushranger
TTITLE12=A Mighty Big River
TTITLE13=This Ancient Land (with Jimmy Little)_
TTITLE14=You Come Back to Tassie
TTITLE15=Sail the Nullabor
TTITLE16=The Baggy Green (with Steve Waugh)
TTITLE17=Sir Don
TTITLE18=The Kiwi and the Emu
TTITLE19=A Number on My Back
TTITLE20=Waltzing Matilda (Rugby Version)
EXTD=
EXTT0=
EXTT1=
EXTT2=
EXTT3=
EXTT4=
EXTT5=
EXTT6=
EXTT7=
EXTT8=
EXTT9=
EXTT10=
EXTT11=
EXTT12=
EXTT13=
EXTT14=
EXTT15=
EXTT16=
EXTT17=
EXTT18=
EXTT19=
EXTT20=
PLAYORDER=
